<svg width="40" height="40" viewBox="0 0 40 40" fill="none" xmlns="http://www.w3.org/2000/svg">
<rect width="40" height="40" rx="6.08" fill="url(#paint0_linear_1265_1666)"/>
<path d="M18.6327 35.021L18.8671 35.1562V34.8857V19.8697V19.7795L18.7889 19.7344L7.07953 12.982L6.84525 12.8469L6.84523 13.1173L6.84375 28.1267L6.84374 28.217L6.9219 28.2621L18.6327 35.021ZM20.2111 19.7344L20.1329 19.7795V19.8697V34.8857V35.1562L20.3672 35.021L32.0781 28.2621L32.1563 28.217L32.1562 28.1267L32.1548 13.1167L32.1547 12.8463L31.9205 12.9814L20.2111 19.7344ZM31.2854 11.8872L31.5201 11.7519L31.2854 11.6165L19.5781 4.86465L19.5 4.81963L19.4219 4.86465L7.71417 11.6168L7.47945 11.7522L7.71418 11.8875L19.4219 18.6382L19.5 18.6832L19.5781 18.6382L31.2854 11.8872Z" fill="#1D123F" stroke="#1D123F" stroke-width="0.3125"/>
<defs>
<linearGradient id="paint0_linear_1265_1666" x1="0" y1="0" x2="40" y2="40" gradientUnits="userSpaceOnUse">
<stop stop-color="#E00BC7"/>
<stop offset="1" stop-color="#6DDCFF"/>
</linearGradient>
</defs>
</svg>
