<svg width="40" height="40" viewBox="0 0 40 40" fill="none" xmlns="http://www.w3.org/2000/svg">
<rect width="40" height="40" rx="6.08" fill="url(#paint0_linear_6_1860)"/>
<path d="M14.1521 14.1343L12.7121 12.7903C12.4561 12.5343 12.0401 12.5663 11.7841 12.8223L5.28812 19.7023C5.06412 19.9583 5.06412 20.3423 5.28812 20.5983L11.7841 27.4783C12.0401 27.7343 12.4561 27.7663 12.7121 27.5103L14.1521 26.1663C14.4081 25.9103 14.4401 25.4943 14.1841 25.2383L9.38412 20.1503L14.1841 15.0623C14.4081 14.8063 14.4081 14.3903 14.1521 14.1343Z" fill="#1D123F"/>
<path d="M35.3039 19.7023L28.8079 12.8223C28.5519 12.5663 28.1359 12.5343 27.8799 12.7903L26.4399 14.1343C26.1839 14.3903 26.1519 14.8063 26.4079 15.0623L31.2079 20.1503L26.4079 25.2383C26.1519 25.4943 26.1839 25.9103 26.4399 26.1663L27.8799 27.5103C28.1359 27.7663 28.5519 27.7343 28.8079 27.4783L35.3039 20.5983C35.5599 20.3423 35.5599 19.9583 35.3039 19.7023Z" fill="#1D123F"/>
<path d="M23.4001 12.0223L21.4801 11.5423C21.1281 11.4463 20.7761 11.6703 20.6801 12.0223L16.7121 27.4783C16.6161 27.8303 16.8401 28.1823 17.1921 28.2783L19.1121 28.7583C19.4641 28.8543 19.8161 28.6303 19.9121 28.2783L23.8801 12.8223C23.9441 12.4703 23.7521 12.1183 23.4001 12.0223Z" fill="#1D123F"/>
<defs>
<linearGradient id="paint0_linear_6_1860" x1="0" y1="0" x2="40" y2="40" gradientUnits="userSpaceOnUse">
<stop stop-color="#E00BC7"/>
<stop offset="1" stop-color="#6DDCFF"/>
</linearGradient>
</defs>
</svg>
