<svg width="40" height="40" viewBox="0 0 40 40" fill="none" xmlns="http://www.w3.org/2000/svg">
<rect width="40" height="40" rx="6" fill="url(#paint0_linear_6_2692)"/>
<path d="M24.3971 12.5404C24.0398 11.9228 24.3063 10.9628 24.6149 9.85121C24.6204 9.83152 24.626 9.81123 24.6318 9.79039C24.8423 9.03092 24.2647 8.701 23.7117 9.2625V9.2625C22.8846 10.1021 22.1704 10.8272 21.4304 10.8272C20.6904 10.8272 19.9762 10.1021 19.1492 9.26243V9.26243C18.5961 8.70099 18.0185 9.0309 18.2291 9.79032C18.2348 9.81118 18.2405 9.8315 18.246 9.85121C18.5546 10.9628 18.8211 11.9228 18.4638 12.5403C18.1179 13.1382 17.1749 13.3786 16.083 13.6568V13.6568C15.1602 13.892 15.1603 14.6088 16.083 14.844V14.844C17.1749 15.1222 18.1179 15.3625 18.4638 15.9604C18.8211 16.5779 18.5546 17.538 18.246 18.6495C18.2405 18.6693 18.2348 18.6896 18.2291 18.7104C18.0185 19.4699 18.5961 19.7998 19.1492 19.2383V19.2383C19.9762 18.3987 20.6904 17.6736 21.4304 17.6736C22.1704 17.6736 22.8846 18.3987 23.7117 19.2383V19.2383C24.2647 19.7998 24.8423 19.4698 24.6318 18.7104C24.626 18.6895 24.6204 18.6692 24.6149 18.6495C24.3063 17.538 24.0398 16.578 24.397 15.9605C24.743 15.3626 25.686 15.1222 26.7779 14.844V14.844C27.7007 14.6088 27.7006 13.892 26.7778 13.6568V13.6568C25.686 13.3786 24.743 13.1383 24.3971 12.5404Z" fill="#1D123F"/>
<path d="M29.3768 23.9738L29.3772 23.9732C30.2874 22.7418 31.83 19.6819 32.2502 17.025C32.6758 14.3344 31.8302 10.7681 30.2831 8.72887C28.4229 6.28194 25.2276 4.66637 21.9438 4.51266C18.2075 4.3396 15.622 4.84905 13.559 6.16529C10.8791 7.87516 10.0428 10.4921 9.78284 11.8997C9.74948 12.0802 9.72172 12.2457 9.69613 12.3985C9.6457 12.6997 9.60587 12.9375 9.55005 13.1273C9.33198 13.8696 9.12597 14.5706 9.60211 15.6601C9.74453 15.9866 9.79374 16.4499 9.07976 17.4086L8.86362 17.6971C7.85612 19.0378 7.25324 19.9153 7.37557 20.7911C7.50775 21.7802 8.33661 22.1688 8.80941 22.3379C8.87157 22.3602 8.90319 22.4295 8.87584 22.4896V22.4896L8.83935 22.5673C8.73561 22.7859 8.48425 23.3156 8.64055 23.9081C8.72342 24.2223 8.78276 24.5553 8.79533 24.8799V24.8799L8.79613 24.8987C8.78649 25.4098 9.06253 25.7395 9.22745 25.9364C9.24288 25.9549 9.26071 25.9762 9.27699 25.9962C9.30408 26.0296 9.31586 26.0726 9.30583 26.1144V26.1144C9.14523 26.7733 8.95952 28.008 9.52013 28.8744C9.79067 29.2922 10.2086 29.5721 10.6976 29.6625C11.9267 29.8883 12.8367 29.7993 13.568 29.7278L13.5755 29.7271C13.9094 29.6945 14.2242 29.6629 14.5241 29.6688C14.821 29.6734 15.0509 29.8512 15.0786 29.9202C15.2804 30.5435 15.4749 31.629 15.3589 32.6375C15.2899 33.2419 15.2084 33.441 15.0085 33.8433C14.9881 33.8844 14.9639 33.9238 14.9365 33.9607V33.9607C14.551 34.4805 14.9221 35.2177 15.5693 35.2175L29.3114 35.2138C29.9163 35.2137 30.2814 34.5444 29.9541 34.0357V34.0357C29.9298 33.9979 29.9085 33.9573 29.8912 33.9158C28.5457 30.6772 28.064 28.5562 28.1755 26.3781C28.2046 25.8045 28.5864 25.0404 29.3768 23.9738ZM27.0595 15.9497C26.793 16.0176 26.4424 16.107 26.1287 16.2035C25.6075 16.3638 25.3405 16.8142 25.4575 17.3467C25.5338 17.6946 25.6397 18.0759 25.7142 18.3443C26.0816 19.6675 26.4285 20.9173 25.569 21.4146C25.4079 21.5078 25.2446 21.5497 25.0796 21.5497C24.3867 21.5499 23.6598 20.8118 22.8986 20.0391C22.4818 19.6159 21.7059 18.8282 21.4294 18.8147C21.1547 18.8282 20.3788 19.6159 19.9619 20.0391C19.0195 20.9958 18.1295 21.8992 17.2915 21.4146C16.432 20.9173 16.779 19.6675 17.1463 18.3444C17.2163 18.0922 17.314 17.7403 17.3887 17.4099C17.5184 16.8362 17.2312 16.3531 16.6679 16.184C16.3712 16.095 16.0496 16.013 15.8011 15.9497C14.5014 15.6185 13.1575 15.2761 13.1575 14.2504C13.1575 13.2247 14.5014 12.8823 15.801 12.5511C16.0674 12.4832 16.4179 12.3939 16.7315 12.2974C17.2529 12.137 17.52 11.6865 17.403 11.1537C17.3266 10.8059 17.2208 10.4248 17.1463 10.1564C16.779 8.83327 16.432 7.58348 17.2916 7.08614C18.1294 6.60127 19.0196 7.50499 19.9619 8.46171C20.3788 8.88488 21.1547 9.67257 21.4311 9.68608C21.7059 9.67257 22.4818 8.88488 22.8986 8.46171C23.841 7.50506 24.7309 6.60155 25.569 7.08614C26.4285 7.58348 26.0816 8.83327 25.7142 10.1565C25.6443 10.4084 25.5468 10.7596 25.4721 11.0897C25.3422 11.6641 25.6297 12.1478 26.1938 12.3171C26.4902 12.406 26.8113 12.4878 27.0595 12.551C28.3591 12.8823 29.7031 13.2247 29.7031 14.2504C29.7031 15.2761 28.3592 15.6185 27.0595 15.9497Z" fill="#1D123F"/>
<defs>
<linearGradient id="paint0_linear_6_2692" x1="0" y1="0" x2="40" y2="40" gradientUnits="userSpaceOnUse">
<stop stop-color="#E00BC7"/>
<stop offset="1" stop-color="#6DDCFF"/>
</linearGradient>
</defs>
</svg>
