<svg width="51" height="50" viewBox="0 0 51 50" fill="none" xmlns="http://www.w3.org/2000/svg">
<g filter="url(#filter0_d_1003_2006)">
<circle cx="25.0176" cy="25" r="19.5" stroke="white"/>
<path fill-rule="evenodd" clip-rule="evenodd" d="M24.6472 13.8269C21.7132 13.8269 21.346 13.8399 20.1933 13.8917C19.044 13.9447 18.2586 14.1272 17.5716 14.394C16.8505 14.665 16.1972 15.0901 15.6574 15.6396C15.1079 16.1794 14.6829 16.8327 14.4119 17.5538C14.145 18.2408 13.9625 19.0261 13.9095 20.1755C13.8566 21.3281 13.8447 21.6954 13.8447 24.6294C13.8447 27.5633 13.8566 27.9306 13.9095 29.0832C13.9625 30.2326 14.145 31.018 14.4119 31.705C14.6829 32.426 15.1079 33.0793 15.6574 33.6192C16.1973 34.1686 16.8505 34.5937 17.5716 34.8647C18.2586 35.1315 19.044 35.3141 20.1933 35.367C21.346 35.4189 21.7132 35.4318 24.6472 35.4318C27.5811 35.4318 27.9484 35.4189 29.1011 35.367C30.2504 35.3141 31.0358 35.1315 31.7228 34.8647C32.4439 34.5937 33.0971 34.1686 33.637 33.6192C34.1865 33.0793 34.6115 32.4261 34.8825 31.705C35.1494 31.018 35.3319 30.2326 35.3848 29.0832C35.4367 27.9306 35.4497 27.5633 35.4497 24.6294C35.4497 21.6954 35.4367 21.3281 35.3848 20.1755C35.3319 19.0261 35.1494 18.2408 34.8825 17.5538C34.6115 16.8327 34.1865 16.1794 33.637 15.6396C33.0972 15.0901 32.4439 14.665 31.7228 14.394C31.0358 14.1272 30.2504 13.9447 29.1011 13.8917C27.9484 13.8399 27.5811 13.8269 24.6472 13.8269ZM24.6472 15.7735C27.5315 15.7735 27.8728 15.7843 29.0114 15.8362C30.0657 15.8848 30.6372 16.0598 31.0185 16.2078C31.5219 16.4044 31.8827 16.6388 32.2608 17.0158C32.6389 17.3939 32.8722 17.7547 33.0688 18.2581C33.2157 18.6394 33.3929 19.2109 33.4404 20.2641C33.4923 21.4038 33.5031 21.744 33.5031 24.6294C33.5031 27.5136 33.4923 27.855 33.4404 28.9936C33.3918 30.0479 33.2157 30.6193 33.0688 31.0007C32.8956 31.4699 32.6195 31.8944 32.2608 32.243C31.8827 32.621 31.5219 32.8544 31.0185 33.051C30.6372 33.1979 30.0657 33.375 29.0125 33.4226C27.8739 33.4744 27.5325 33.4852 24.6472 33.4852C21.7629 33.4852 21.4205 33.4744 20.283 33.4226C19.2287 33.374 18.6572 33.1979 18.2759 33.051C17.8066 32.8779 17.3821 32.6017 17.0336 32.243C16.6748 31.8944 16.3987 31.4699 16.2256 31.0007C16.0776 30.6193 15.9015 30.0479 15.854 28.9946C15.8021 27.855 15.7913 27.5147 15.7913 24.6294C15.7913 21.7451 15.8021 21.4038 15.854 20.2652C15.9026 19.2109 16.0776 18.6394 16.2256 18.2581C16.4222 17.7547 16.6566 17.3939 17.0336 17.0158C17.4117 16.6377 17.7725 16.4044 18.2759 16.2078C18.6572 16.0598 19.2287 15.8837 20.2819 15.8362C21.4216 15.7843 21.7619 15.7735 24.6472 15.7735ZM24.6472 28.2298C23.6923 28.2298 22.7765 27.8505 22.1013 27.1753C21.4261 26.5001 21.0467 25.5843 21.0467 24.6294C21.0467 23.6745 21.4261 22.7587 22.1013 22.0835C22.7765 21.4082 23.6923 21.0289 24.6472 21.0289C25.6021 21.0289 26.5179 21.4082 27.1931 22.0835C27.8683 22.7587 28.2477 23.6745 28.2477 24.6294C28.2477 25.5843 27.8683 26.5001 27.1931 27.1753C26.5179 27.8505 25.6021 28.2298 24.6472 28.2298ZM24.6472 19.0823C23.9187 19.0823 23.1974 19.2258 22.5244 19.5045C21.8514 19.7833 21.2399 20.1919 20.7248 20.707C20.2097 21.2221 19.8011 21.8336 19.5224 22.5066C19.2436 23.1796 19.1001 23.9009 19.1001 24.6294C19.1001 25.3578 19.2436 26.0791 19.5224 26.7521C19.8011 27.4251 20.2097 28.0366 20.7248 28.5517C21.2399 29.0668 21.8514 29.4754 22.5244 29.7542C23.1974 30.033 23.9187 30.1764 24.6472 30.1764C26.1184 30.1764 27.5293 29.592 28.5696 28.5517C29.6098 27.5115 30.1943 26.1005 30.1943 24.6294C30.1943 23.1582 29.6098 21.7473 28.5696 20.707C27.5293 19.6667 26.1184 19.0823 24.6472 19.0823ZM31.7098 18.863C31.7098 19.0332 31.6763 19.2018 31.6112 19.3591C31.546 19.5164 31.4505 19.6593 31.3302 19.7796C31.2098 19.9 31.0669 19.9955 30.9096 20.0606C30.7523 20.1258 30.5838 20.1593 30.4136 20.1593C30.2433 20.1593 30.0748 20.1258 29.9175 20.0606C29.7602 19.9955 29.6173 19.9 29.4969 19.7796C29.3766 19.6593 29.2811 19.5164 29.2159 19.3591C29.1508 19.2018 29.1173 19.0332 29.1173 18.863C29.1173 18.5192 29.2538 18.1895 29.4969 17.9464C29.74 17.7033 30.0698 17.5667 30.4136 17.5667C30.7574 17.5667 31.0871 17.7033 31.3302 17.9464C31.5733 18.1895 31.7098 18.5192 31.7098 18.863Z" fill="white"/>
</g>
<defs>
<filter id="filter0_d_1003_2006" x="0.0175781" y="0" width="50" height="50" filterUnits="userSpaceOnUse" color-interpolation-filters="sRGB">
<feFlood flood-opacity="0" result="BackgroundImageFix"/>
<feColorMatrix in="SourceAlpha" type="matrix" values="0 0 0 0 0 0 0 0 0 0 0 0 0 0 0 0 0 0 127 0" result="hardAlpha"/>
<feOffset/>
<feGaussianBlur stdDeviation="2.5"/>
<feComposite in2="hardAlpha" operator="out"/>
<feColorMatrix type="matrix" values="0 0 0 0 0.878744 0 0 0 0 0.0412557 0 0 0 0 0.781037 0 0 0 1 0"/>
<feBlend mode="normal" in2="BackgroundImageFix" result="effect1_dropShadow_1003_2006"/>
<feBlend mode="normal" in="SourceGraphic" in2="effect1_dropShadow_1003_2006" result="shape"/>
</filter>
</defs>
</svg>
