<svg width="18" height="18" viewBox="0 0 18 18" fill="none" xmlns="http://www.w3.org/2000/svg">
<rect x="0.1" y="0.1" width="17.801" height="17.8" rx="8.9" stroke="white" stroke-width="0.2"/>
<path d="M9.34286 6.80286C9.91926 6.21389 10.6698 5.82857 11.5429 5.82857C12.4597 5.82857 13.3391 6.1928 13.9874 6.84115C14.6358 7.48949 15 8.36882 15 9.28571V14H13.7429V9.28571C13.7429 8.70224 13.5111 8.14266 13.0985 7.73008C12.6859 7.3175 12.1263 7.08571 11.5429 7.08571C10.9594 7.08571 10.3998 7.3175 9.98722 7.73008C9.57464 8.14266 9.34286 8.70224 9.34286 9.28571V14H8.08571V6.14286H9.34286V6.80286ZM4.94286 4.88571C4.6928 4.88571 4.45298 4.78638 4.27616 4.60956C4.09934 4.43274 4 4.19292 4 3.94286C4 3.6928 4.09934 3.45298 4.27616 3.27616C4.45298 3.09934 4.6928 3 4.94286 3C5.19292 3 5.43274 3.09934 5.60956 3.27616C5.78638 3.45298 5.88571 3.6928 5.88571 3.94286C5.88571 4.19292 5.78638 4.43274 5.60956 4.60956C5.43274 4.78638 5.19292 4.88571 4.94286 4.88571ZM4.31429 6.14286H5.57143V14H4.31429V6.14286Z" fill="white"/>
</svg>
