<svg width="192" height="36" viewBox="0 0 192 36" fill="none" xmlns="http://www.w3.org/2000/svg">
<mask id="mask0_1419_1875" style="mask-type:alpha" maskUnits="userSpaceOnUse" x="9" y="0" width="72" height="36">
<path d="M63.6982 0.0619423C57.5139 0.0272572 51.3297 0.0619423 45.1454 0.0619423L45.1574 0.0219212C38.8683 0.0219212 32.5793 -0.0367768 26.2902 0.0379295C17.9347 0.136649 10.9449 5.94239 10.1483 13.357C9.86378 16.0117 9.96859 18.6798 10.0345 21.3479C10.1962 28.4397 16.1528 34.5736 23.9722 35.7262C27.0928 36.1984 30.2463 35.8943 33.3819 35.993C34.9691 36.0437 36.3048 35.7315 37.2991 34.5202C38.3592 33.2289 39.8776 32.8313 41.6235 32.882C43.2647 32.9274 44.9148 32.914 46.559 32.882C48.0025 32.8553 49.2153 33.2689 50.0988 34.2961C51.2039 35.5768 52.6743 36.009 54.4293 35.9877C57.5678 35.961 60.7153 36.0437 63.8569 35.961C67.4715 35.8902 70.9632 34.7784 73.8093 32.792C76.6554 30.8056 78.703 28.0515 79.6454 24.9418C80.6936 21.532 80.2444 18.0448 80.1905 14.595C80.1408 10.7266 78.3816 7.03154 75.2944 4.31102C72.2071 1.5905 68.0405 0.0637958 63.6982 0.0619423Z" fill="#D9D9D9"/>
</mask>
<g mask="url(#mask0_1419_1875)">
<g filter="url(#filter0_f_1419_1875)">
<ellipse cx="45.7551" cy="16.8453" rx="32.8088" ry="32.9063" fill="#E00BC7"/>
</g>
<g filter="url(#filter1_f_1419_1875)">
<ellipse cx="45.5319" cy="51.9902" rx="37.4957" ry="37.6073" fill="#791EEB"/>
</g>
</g>
<path d="M89.992 17.795C89.992 20.151 89.992 22.5042 89.992 24.8601C89.992 27.216 88.3569 28.6755 85.7065 28.7288C84.3618 28.7555 83.0112 28.6862 81.6695 28.7502C80.6573 28.7982 80.5495 28.5901 80.8639 27.7256C82.9902 21.9092 82.6877 16.0101 81.379 10.1163C81.1495 9.29749 80.8264 8.5018 80.4147 7.74171C80.1601 7.20809 80.1511 6.91727 80.9358 6.94129C82.8315 6.9653 84.7302 6.89059 86.6259 6.99198C88.5216 7.09337 89.9531 8.59283 89.9831 10.4872C90.022 12.9311 89.9831 15.3751 89.9831 17.8191L89.992 17.795Z" fill="white"/>
<path d="M0.00795841 17.795C0.00795841 20.151 0.00795841 22.5042 0.00795841 24.8601C0.00795841 27.216 1.64311 28.6755 4.29351 28.7288C5.63817 28.7555 6.98882 28.6862 8.33049 28.7502C9.34273 28.7982 9.45054 28.5901 9.13609 27.7256C7.00979 21.9092 7.31226 16.0101 8.62098 10.1163C8.85049 9.29749 9.17362 8.5018 9.58531 7.74171C9.83986 7.20809 9.84885 6.91727 9.06422 6.94129C7.16851 6.9653 5.26981 6.89059 3.37411 6.99198C1.47841 7.09337 0.0468903 8.59283 0.016943 10.4872C-0.0219898 12.9311 0.016943 15.3751 0.016943 17.8191L0.00795841 17.795Z" fill="white"/>
<path d="M102.352 8.492C102.352 6.532 103.704 5.196 105.504 5.196C106.152 5.196 106.552 5.276 107.12 5.58C107.12 5.58 107.12 6.524 107.12 7.244C106.752 6.94 106.344 6.708 105.584 6.708C104.544 6.708 103.968 7.468 103.968 8.508C103.968 9.492 104.696 10.148 105.664 10.148C106.256 10.148 106.696 9.916 107.104 9.644C107.104 9.644 107.104 10.948 107.104 11.252C106.6 11.476 106.2 11.66 105.56 11.66C103.792 11.66 102.352 10.38 102.352 8.492ZM108.258 11.5V5.372H111.81V6.764H109.858V7.756H111.698V9.116H109.858V10.14H111.842V11.5H108.258ZM114.757 7.844V11.5H113.157V5.372H114.757L117.621 9.004V5.372H119.173V11.5H117.573L114.757 7.844ZM121.211 11.508V6.836H119.947V5.38H124.139V6.836H122.875V11.508H121.211ZM126.827 9.34H126.507V11.5H124.907V5.372C124.907 5.372 127.019 5.372 127.347 5.372C128.435 5.372 129.443 5.988 129.443 7.292C129.443 8.132 129.075 8.7 128.387 8.964C128.547 9.196 130.027 11.5 130.027 11.5H128.115C128.115 11.5 127.003 9.62 126.827 9.34ZM126.475 6.596V8.132H126.987C127.427 8.132 127.811 7.948 127.811 7.364C127.811 6.844 127.531 6.596 127.003 6.596H126.475ZM130.735 11.5V5.372H134.287V6.764H132.335V7.756H134.175V9.116H132.335V10.14H134.319V11.5H130.735ZM137.704 8.428C137.704 6.468 139.224 5.148 141.088 5.148C143.008 5.148 144.464 6.564 144.464 8.372C144.464 10.356 142.96 11.724 141.08 11.724C139.096 11.724 137.704 10.316 137.704 8.428ZM141.08 6.652C140.056 6.652 139.32 7.412 139.32 8.452C139.32 9.492 140.032 10.228 141.072 10.228C142.112 10.228 142.848 9.476 142.848 8.404C142.848 7.42 142.096 6.652 141.08 6.652ZM145.5 11.5V5.372H149.1V6.764H147.1V7.756H148.844V9.116H147.1V11.5H145.5Z" fill="white"/>
<path d="M105.038 26.5H102.21L103.89 15.776H106.606L108.874 21.628L111.114 15.776H113.942L115.65 26.5H112.794L111.954 20.34L109.518 26.5H108.202L105.794 20.312L105.038 26.5ZM117.135 26.5V15.776H123.351V18.212H119.935V19.948H123.155V22.328H119.935V24.12H123.407V26.5H117.135ZM126.884 26.514V18.338H124.672V15.79H132.008V18.338H129.796V26.514H126.884ZM135.436 26.5H132.454L136.43 15.79L139.636 15.776L143.612 26.5H140.588L139.86 24.512H136.15L135.436 26.5ZM137.998 19.08L136.85 22.356H139.132L137.998 19.08ZM144.155 15.776H147.263L149.979 22.776L152.639 15.776H155.691L151.239 26.5H148.607L144.155 15.776ZM157.139 26.5V15.776H163.355V18.212H159.939V19.948H163.159V22.328H159.939V24.12H163.411V26.5H157.139ZM169.071 22.72H168.511V26.5H165.711V15.776C165.711 15.776 169.407 15.776 169.981 15.776C171.885 15.776 173.649 16.854 173.649 19.136C173.649 20.606 173.005 21.6 171.801 22.062C172.081 22.468 174.671 26.5 174.671 26.5H171.325C171.325 26.5 169.379 23.21 169.071 22.72ZM168.455 17.918V20.606H169.351C170.121 20.606 170.793 20.284 170.793 19.262C170.793 18.352 170.303 17.918 169.379 17.918H168.455ZM175.309 18.8C175.309 16.658 177.087 15.384 178.991 15.384C180.377 15.384 181.651 16.028 182.421 16.532L181.329 18.632C181.329 18.632 180.209 17.778 179.173 17.778C178.487 17.778 178.095 18.156 178.095 18.716C178.095 19.29 178.753 19.486 179.313 19.696C179.649 19.822 180.195 20.046 180.475 20.158C182.085 20.802 182.911 21.782 182.911 23.392C182.911 25.688 180.783 26.892 178.627 26.892C177.115 26.892 176.051 26.262 174.931 25.562C174.931 25.562 175.813 23.798 176.051 23.392C176.569 23.854 177.549 24.428 178.571 24.428C179.355 24.428 180.125 24.162 180.125 23.588C180.125 23.14 180.055 22.93 179.005 22.538C178.669 22.412 177.871 22.104 177.409 21.894C176.051 21.278 175.309 20.312 175.309 18.8ZM184.551 26.5V15.776H190.767V18.212H187.351V19.948H190.571V22.328H187.351V24.12H190.823V26.5H184.551Z" fill="white"/>
<defs>
<filter id="filter0_f_1419_1875" x="-11.8037" y="-40.811" width="115.117" height="115.313" filterUnits="userSpaceOnUse" color-interpolation-filters="sRGB">
<feFlood flood-opacity="0" result="BackgroundImageFix"/>
<feBlend mode="normal" in="SourceGraphic" in2="BackgroundImageFix" result="shape"/>
<feGaussianBlur stdDeviation="12.375" result="effect1_foregroundBlur_1419_1875"/>
</filter>
<filter id="filter1_f_1419_1875" x="-16.7139" y="-10.3671" width="124.491" height="124.715" filterUnits="userSpaceOnUse" color-interpolation-filters="sRGB">
<feFlood flood-opacity="0" result="BackgroundImageFix"/>
<feBlend mode="normal" in="SourceGraphic" in2="BackgroundImageFix" result="shape"/>
<feGaussianBlur stdDeviation="12.375" result="effect1_foregroundBlur_1419_1875"/>
</filter>
</defs>
</svg>
